<mxfile host="Electron" modified="2024-06-06T18:03:50.692Z" agent="Mozilla/5.0 (Windows NT 10.0; Win64; x64) AppleWebKit/537.36 (KHTML, like Gecko) draw.io/24.4.13 Chrome/124.0.6367.207 Electron/30.0.6 Safari/537.36" etag="TQQnA0ZuasM-nFG4II88" version="24.4.13" type="device">
  <diagram name="Page-1" id="8AExiW12i_gnfEKdbFFz">
    <mxGraphModel dx="757" dy="639" grid="1" gridSize="10" guides="1" tooltips="1" connect="1" arrows="1" fold="1" page="1" pageScale="1" pageWidth="827" pageHeight="1169" math="0" shadow="0">
      <root>
        <mxCell id="0" />
        <mxCell id="1" parent="0" />
        <mxCell id="C6CtMf7c4fnf4AZ9hv4f-73" style="edgeStyle=orthogonalEdgeStyle;rounded=0;orthogonalLoop=1;jettySize=auto;html=1;exitX=0.5;exitY=1;exitDx=0;exitDy=0;entryX=0.5;entryY=0;entryDx=0;entryDy=0;" parent="1" source="C6CtMf7c4fnf4AZ9hv4f-1" target="C6CtMf7c4fnf4AZ9hv4f-68" edge="1">
          <mxGeometry relative="1" as="geometry" />
        </mxCell>
        <mxCell id="C6CtMf7c4fnf4AZ9hv4f-1" value="Экран приветствия" style="rounded=1;whiteSpace=wrap;html=1;" parent="1" vertex="1">
          <mxGeometry x="245" y="30" width="120" height="30" as="geometry" />
        </mxCell>
        <mxCell id="C6CtMf7c4fnf4AZ9hv4f-2" style="edgeStyle=orthogonalEdgeStyle;rounded=0;orthogonalLoop=1;jettySize=auto;html=1;exitX=0.5;exitY=1;exitDx=0;exitDy=0;" parent="1" source="C6CtMf7c4fnf4AZ9hv4f-1" target="C6CtMf7c4fnf4AZ9hv4f-1" edge="1">
          <mxGeometry relative="1" as="geometry" />
        </mxCell>
        <mxCell id="C6CtMf7c4fnf4AZ9hv4f-11" value="Переход к игровому циклу" style="rounded=1;whiteSpace=wrap;html=1;" parent="1" vertex="1">
          <mxGeometry x="245" y="400" width="120" height="40" as="geometry" />
        </mxCell>
        <mxCell id="C6CtMf7c4fnf4AZ9hv4f-74" style="edgeStyle=orthogonalEdgeStyle;rounded=0;orthogonalLoop=1;jettySize=auto;html=1;exitX=0.5;exitY=1;exitDx=0;exitDy=0;entryX=0.5;entryY=0;entryDx=0;entryDy=0;" parent="1" source="C6CtMf7c4fnf4AZ9hv4f-68" target="C6CtMf7c4fnf4AZ9hv4f-69" edge="1">
          <mxGeometry relative="1" as="geometry" />
        </mxCell>
        <mxCell id="C6CtMf7c4fnf4AZ9hv4f-68" value="Формирование приветствия" style="rounded=0;whiteSpace=wrap;html=1;" parent="1" vertex="1">
          <mxGeometry x="245" y="80" width="120" height="40" as="geometry" />
        </mxCell>
        <mxCell id="C6CtMf7c4fnf4AZ9hv4f-75" style="edgeStyle=orthogonalEdgeStyle;rounded=0;orthogonalLoop=1;jettySize=auto;html=1;exitX=0.5;exitY=1;exitDx=0;exitDy=0;entryX=0.5;entryY=0;entryDx=0;entryDy=0;" parent="1" source="C6CtMf7c4fnf4AZ9hv4f-69" edge="1">
          <mxGeometry relative="1" as="geometry">
            <mxPoint x="305" y="210" as="targetPoint" />
          </mxGeometry>
        </mxCell>
        <mxCell id="C6CtMf7c4fnf4AZ9hv4f-69" value="Отображение приветствия" style="rounded=0;whiteSpace=wrap;html=1;" parent="1" vertex="1">
          <mxGeometry x="245" y="140" width="120" height="40" as="geometry" />
        </mxCell>
        <mxCell id="C6CtMf7c4fnf4AZ9hv4f-84" style="edgeStyle=orthogonalEdgeStyle;rounded=0;orthogonalLoop=1;jettySize=auto;html=1;exitX=0.5;exitY=1;exitDx=0;exitDy=0;entryX=0.5;entryY=0;entryDx=0;entryDy=0;" parent="1" source="C6CtMf7c4fnf4AZ9hv4f-76" target="C6CtMf7c4fnf4AZ9hv4f-77" edge="1">
          <mxGeometry relative="1" as="geometry" />
        </mxCell>
        <mxCell id="C6CtMf7c4fnf4AZ9hv4f-76" value="&lt;div&gt;Ввод&amp;nbsp;&lt;/div&gt;&lt;div&gt;пользователя&lt;/div&gt;" style="shape=parallelogram;perimeter=parallelogramPerimeter;whiteSpace=wrap;html=1;fixedSize=1;" parent="1" vertex="1">
          <mxGeometry x="245" y="210" width="120" height="40" as="geometry" />
        </mxCell>
        <mxCell id="C6CtMf7c4fnf4AZ9hv4f-79" style="edgeStyle=orthogonalEdgeStyle;rounded=0;orthogonalLoop=1;jettySize=auto;html=1;exitX=0;exitY=0.5;exitDx=0;exitDy=0;entryX=0.5;entryY=0;entryDx=0;entryDy=0;" parent="1" source="C6CtMf7c4fnf4AZ9hv4f-77" target="C6CtMf7c4fnf4AZ9hv4f-78" edge="1">
          <mxGeometry relative="1" as="geometry" />
        </mxCell>
        <mxCell id="C6CtMf7c4fnf4AZ9hv4f-80" value="Да" style="edgeLabel;html=1;align=center;verticalAlign=middle;resizable=0;points=[];" parent="C6CtMf7c4fnf4AZ9hv4f-79" vertex="1" connectable="0">
          <mxGeometry x="-0.5111" y="1" relative="1" as="geometry">
            <mxPoint y="-11" as="offset" />
          </mxGeometry>
        </mxCell>
        <mxCell id="C6CtMf7c4fnf4AZ9hv4f-85" style="edgeStyle=orthogonalEdgeStyle;rounded=0;orthogonalLoop=1;jettySize=auto;html=1;exitX=1;exitY=0.5;exitDx=0;exitDy=0;entryX=0.5;entryY=0;entryDx=0;entryDy=0;" parent="1" source="C6CtMf7c4fnf4AZ9hv4f-77" target="C6CtMf7c4fnf4AZ9hv4f-11" edge="1">
          <mxGeometry relative="1" as="geometry">
            <Array as="points">
              <mxPoint x="430" y="310" />
              <mxPoint x="430" y="380" />
              <mxPoint x="305" y="380" />
            </Array>
          </mxGeometry>
        </mxCell>
        <mxCell id="C6CtMf7c4fnf4AZ9hv4f-87" value="Нет" style="edgeLabel;html=1;align=center;verticalAlign=middle;resizable=0;points=[];" parent="C6CtMf7c4fnf4AZ9hv4f-85" vertex="1" connectable="0">
          <mxGeometry x="-0.7265" relative="1" as="geometry">
            <mxPoint x="-10" y="-22" as="offset" />
          </mxGeometry>
        </mxCell>
        <mxCell id="C6CtMf7c4fnf4AZ9hv4f-77" value="&lt;div&gt;Запрошен выход&lt;/div&gt;из игры" style="rhombus;whiteSpace=wrap;html=1;" parent="1" vertex="1">
          <mxGeometry x="200" y="280" width="210" height="60" as="geometry" />
        </mxCell>
        <mxCell id="C6CtMf7c4fnf4AZ9hv4f-86" style="edgeStyle=orthogonalEdgeStyle;rounded=0;orthogonalLoop=1;jettySize=auto;html=1;exitX=0.5;exitY=1;exitDx=0;exitDy=0;entryX=0.5;entryY=0;entryDx=0;entryDy=0;" parent="1" source="C6CtMf7c4fnf4AZ9hv4f-78" target="C6CtMf7c4fnf4AZ9hv4f-11" edge="1">
          <mxGeometry relative="1" as="geometry">
            <Array as="points">
              <mxPoint x="170" y="380" />
              <mxPoint x="305" y="380" />
            </Array>
          </mxGeometry>
        </mxCell>
        <mxCell id="C6CtMf7c4fnf4AZ9hv4f-78" value="Выставление флага выхода из игры" style="rounded=0;whiteSpace=wrap;html=1;" parent="1" vertex="1">
          <mxGeometry x="110" y="330" width="120" height="40" as="geometry" />
        </mxCell>
      </root>
    </mxGraphModel>
  </diagram>
</mxfile>
